<svg xmlns="http://www.w3.org/2000/svg" viewBox="0 0 400 200">
  <rect width="400" height="200" fill="#0B1A2E"/>
  <g fill="#C9A227" opacity="0.9">
    <rect x="30" y="90" width="14" height="90"/>
    <rect x="60" y="70" width="14" height="110"/>
    <rect x="90" y="50" width="14" height="130"/>
    <rect x="120" y="30" width="14" height="150"/>
    <circle cx="127" cy="18" r="16"/>
    <rect x="150" y="50" width="14" height="130"/>
    <rect x="180" y="70" width="14" height="110"/>
    <rect x="210" y="70" width="14" height="110"/>
    <rect x="240" y="50" width="14" height="130"/>
    <rect x="266" y="30" width="14" height="150"/>
    <circle cx="273" cy="18" r="16"/>
    <rect x="296" y="50" width="14" height="130"/>
    <rect x="326" y="70" width="14" height="110"/>
    <rect x="356" y="90" width="14" height="90"/>
  </g>
  <rect x="10" y="178" width="380" height="10" fill="#DC143C"/>
</svg>
